# xmcd
#
# Track frame offsets: 
#        150
#        14135
#        25802
#        39895
#        54695
#        72145
#        79955
#        94445
#        110462
#        125515
#        148422
#        162657
#        171835
#        184902
#
# Disc length: 2705 seconds
#
# Revision: 0
# Processed by: cddbd v1.5.2PL0 Copyright (c) Steve Scherf et al.
# Submitted via: ExactAudioCopy v0.95b3
#
DISCID=cf0a8f0e
DTITLE=Sauce Boss - Florida Blues
DYEAR=2006
DGENRE=Blues
TTITLE0=Let The Big Dog Eat
TTITLE1=I'm Cookin'
TTITLE2=Alligator
TTITLE3=Going Back To Florida
TTITLE4=Ten Foot Pole
TTITLE5=Postcard With The Blues
TTITLE6=Your Maytag Done Broke Down
TTITLE7=Cypress Grove Blues
TTITLE8=Great Big Fanny
TTITLE9=Open Up
TTITLE10=Little Miss Heartbreak
TTITLE11=I Don't Want No Whiskey
TTITLE12=She's Mine
TTITLE13=Smugglers Cove
EXTD=
EXTT0=
EXTT1=
EXTT2=
EXTT3=
EXTT4=
EXTT5=
EXTT6=
EXTT7=
EXTT8=
EXTT9=
EXTT10=
EXTT11=
EXTT12=
EXTT13=
PLAYORDER=
